<svg width="152" height="102" viewBox="0 0 152 102" fill="none" xmlns="http://www.w3.org/2000/svg">
<path d="M51.351 41.6963C51.351 43.0957 51.5013 44.2303 51.7643 45.0623C52.0649 45.8943 52.4406 46.802 52.9667 47.7853C53.1545 48.0879 53.2297 48.3904 53.2297 48.6552C53.2297 49.0334 53.0042 49.4116 52.5158 49.7898L50.1487 51.3782C49.8106 51.6051 49.4724 51.7186 49.1718 51.7186C48.7961 51.7186 48.4204 51.5295 48.0446 51.1891C47.5186 50.6218 47.0678 50.0167 46.692 49.4116C46.3163 48.7686 45.9406 48.0501 45.5273 47.1802C42.5966 50.6596 38.9145 52.3993 34.4809 52.3993C31.3248 52.3993 28.8075 51.4917 26.9664 49.6763C25.1254 47.861 24.186 45.4405 24.186 42.4149C24.186 39.2002 25.3132 36.5907 27.6051 34.624C29.8971 32.6574 32.9405 31.6741 36.8104 31.6741C38.0879 31.6741 39.4029 31.7875 40.7931 31.9766C42.1833 32.1657 43.6111 32.4683 45.114 32.8087V30.0478C45.114 27.1735 44.5128 25.1691 43.3481 23.9967C42.1457 22.8242 40.1168 22.257 37.2237 22.257C35.9087 22.257 34.5561 22.4082 33.1659 22.7486C31.7757 23.089 30.4231 23.505 29.108 24.0345C28.5069 24.2992 28.056 24.4505 27.793 24.5261C27.53 24.6018 27.3421 24.6396 27.1918 24.6396C26.6658 24.6396 26.4028 24.2614 26.4028 23.4672V21.614C26.4028 21.0089 26.478 20.5551 26.6658 20.2903C26.8537 20.0256 27.1918 19.7608 27.7179 19.4961C29.0329 18.8154 30.611 18.2481 32.452 17.7942C34.2931 17.3026 36.2468 17.0756 38.3133 17.0756C42.7845 17.0756 46.0533 18.0968 48.1574 20.139C50.2239 22.1813 51.2759 25.2825 51.2759 29.4427V41.6963H51.351ZM36.0966 47.4449C37.3364 47.4449 38.6139 47.218 39.9665 46.7642C41.3191 46.3103 42.5215 45.4783 43.5359 44.3437C44.1371 43.6251 44.588 42.8309 44.8134 41.9233C45.0388 41.0156 45.1891 39.9188 45.1891 38.6329V37.0445C44.0995 36.7798 42.9348 36.5528 41.7324 36.4016C40.5301 36.2503 39.3654 36.1746 38.2006 36.1746C35.6833 36.1746 33.8422 36.6663 32.6023 37.6874C31.3624 38.7086 30.7612 40.1457 30.7612 42.0367C30.7612 43.8142 31.2121 45.1379 32.1514 46.0456C33.0532 46.9911 34.3682 47.4449 36.0966 47.4449ZM66.2674 51.5295C65.5911 51.5295 65.1402 51.416 64.8396 51.1513C64.539 50.9244 64.276 50.3949 64.0506 49.6763L55.221 20.4416C54.9956 19.6852 54.8829 19.1935 54.8829 18.9288C54.8829 18.3237 55.1834 17.9833 55.7846 17.9833H59.4667C60.1806 17.9833 60.669 18.0968 60.9321 18.3615C61.2326 18.5884 61.4581 19.1179 61.6835 19.8365L67.9957 44.8732L73.857 19.8365C74.0449 19.0801 74.2703 18.5884 74.5709 18.3615C74.8715 18.1346 75.3975 17.9833 76.0738 17.9833H79.0796C79.7935 17.9833 80.2819 18.0968 80.5825 18.3615C80.8831 18.5884 81.1461 19.1179 81.2964 19.8365L87.2329 45.1758L93.7329 19.8365C93.9584 19.0801 94.2214 18.5884 94.4844 18.3615C94.785 18.1346 95.2734 17.9833 95.9497 17.9833H99.444C100.045 17.9833 100.383 18.2859 100.383 18.9288C100.383 19.1179 100.346 19.307 100.308 19.5339C100.271 19.7608 100.195 20.0634 100.045 20.4794L90.9901 49.7141C90.7647 50.4705 90.5017 50.9622 90.2011 51.1891C89.9005 51.416 89.4121 51.5673 88.7734 51.5673H85.5421C84.8282 51.5673 84.3398 51.4538 84.0392 51.1891C83.7386 50.9244 83.4756 50.4327 83.3253 49.6763L77.5016 25.2825L71.7154 49.6385C71.5275 50.3949 71.3021 50.8865 71.0015 51.1513C70.7009 51.416 70.1749 51.5295 69.4986 51.5295H66.2674ZM114.548 52.5506C112.594 52.5506 110.641 52.3237 108.762 51.8699C106.883 51.416 105.418 50.9244 104.441 50.3571C103.84 50.0167 103.427 49.6385 103.276 49.2981C103.126 48.9577 103.051 48.5795 103.051 48.2392V46.3103C103.051 45.5161 103.352 45.1379 103.915 45.1379C104.141 45.1379 104.366 45.1758 104.591 45.2514C104.817 45.327 105.155 45.4783 105.531 45.6296C106.808 46.1969 108.198 46.6507 109.664 46.9533C111.167 47.2558 112.632 47.4071 114.135 47.4071C116.502 47.4071 118.343 46.9911 119.62 46.1591C120.898 45.327 121.574 44.1168 121.574 42.5662C121.574 41.5072 121.236 40.6374 120.56 39.9188C119.883 39.2002 118.606 38.5573 116.765 37.9522L111.317 36.2503C108.574 35.3804 106.545 34.0946 105.305 32.3927C104.065 30.7286 103.427 28.8754 103.427 26.9088C103.427 25.3204 103.765 23.921 104.441 22.7108C105.117 21.5006 106.019 20.4416 107.146 19.6096C108.274 18.7397 109.551 18.0968 111.054 17.6429C112.557 17.1891 114.135 17 115.788 17C116.615 17 117.479 17.0378 118.305 17.1513C119.17 17.2647 119.959 17.416 120.748 17.5673C121.499 17.7564 122.213 17.9455 122.889 18.1724C123.566 18.3993 124.092 18.6263 124.467 18.8532C124.993 19.1557 125.369 19.4583 125.595 19.7987C125.82 20.1012 125.933 20.5172 125.933 21.0467V22.8242C125.933 23.6185 125.632 24.0345 125.069 24.0345C124.768 24.0345 124.279 23.8832 123.641 23.5806C121.499 22.5973 119.094 22.1057 116.427 22.1057C114.285 22.1057 112.594 22.4461 111.43 23.1646C110.265 23.8832 109.664 24.98 109.664 26.5306C109.664 27.5895 110.039 28.4972 110.791 29.2158C111.542 29.9344 112.933 30.653 114.924 31.2959L120.259 32.9978C122.964 33.8676 124.918 35.0779 126.083 36.6285C127.248 38.1791 127.811 39.9566 127.811 41.9233C127.811 43.5495 127.473 45.0245 126.834 46.3103C126.158 47.5962 125.256 48.7308 124.092 49.6385C122.927 50.584 121.537 51.2647 119.921 51.7564C118.23 52.2859 116.464 52.5506 114.548 52.5506Z" fill="white"/>
<path fill-rule="evenodd" clip-rule="evenodd" d="M121.649 70.931C109.288 80.1213 91.3283 85 75.886 85C54.2441 85 34.744 76.9444 20.0155 63.5562C18.8507 62.4972 19.9028 61.0601 21.293 61.8921C37.2237 71.1958 56.8742 76.8309 77.201 76.8309C90.915 76.8309 105.982 73.9566 119.846 68.0567C121.912 67.1112 123.678 69.4182 121.649 70.931Z" fill="#FF9900"/>
<path fill-rule="evenodd" clip-rule="evenodd" d="M126.797 65.0311C125.219 62.9889 116.352 64.0478 112.331 64.5395C111.129 64.6908 110.941 63.6318 112.031 62.8376C119.094 57.8454 130.704 59.2825 132.057 60.9466C133.41 62.6485 131.681 74.3348 125.068 79.9321C124.054 80.802 123.077 80.3482 123.528 79.2136C125.031 75.4694 128.375 67.0356 126.797 65.0311Z" fill="#FF9900"/>
</svg>
