<?xml version="1.0" encoding="utf-8"?>
<!-- Generator: Adobe Illustrator 25.0.1, SVG Export Plug-In . SVG Version: 6.00 Build 0)  -->
<svg version="1.0" id="katman_1" xmlns="http://www.w3.org/2000/svg" xmlns:xlink="http://www.w3.org/1999/xlink" x="0px" y="0px"
	 viewBox="0 0 600 400" style="enable-background:new 0 0 600 400;" xml:space="preserve">
<style type="text/css">
	.st0{fill:#1D1D1B;}
	.st1{fill:#35D07F;}
	.st2{fill:#FBCC5C;}
	.st3{fill:#ECFF8F;}
</style>
<path class="st0" d="M405,247.4l10.8-3.4V155l-10.8,3.4V247.4z M280.9,193.4c6.8,0,13,3,17,8l4.4-10.1c-5.8-5.5-13.4-8.1-21.4-8.1
	c-18.5,0-31.3,14.6-31.2,30.8c0.1,17.5,13.9,31.8,31.2,31.8c8.8,0,15.4-2.6,20.4-6.3V227c-5.3,5.3-12.9,8.4-19.5,8.4
	c-10,0-21.3-8.1-21.3-21.5C260.5,201.5,270.2,193.4,280.9,193.4z M352.5,183.1c-18.5,0-29.3,14.6-29.3,30.8
	c0,17.5,13.9,31.8,31.2,31.8c8.8,0,15.4-2.6,20.4-6.3V227c-5.3,5.3-12.9,8.4-19.5,8.4c-8.9,0-18.6-5.5-20.6-17.1h47.2v-4.1
	C381.7,196.9,370.4,183.1,352.5,183.1z M468.7,183.1c-17.3,0-31.3,14-31.3,31.3s14,31.3,31.3,31.3c17.3,0,31.3-14,31.3-31.3
	S486,183.1,468.7,183.1z M352.6,193.4c8.4,0,17.3,5.3,18,15.4h-36C335.3,198.6,344.2,193.4,352.6,193.4z M468.7,235.4
	c-11.6,0-21-9.4-21-21c0-11.6,9.4-21,21-21c11.6,0,21,9.4,21,21C489.7,226,480.4,235.4,468.7,235.4z"/>
<path class="st1" d="M171.5,223.8c19,0,34.4-15.4,34.4-34.4c0-19-15.4-34.4-34.4-34.4s-34.4,15.4-34.4,34.4
	C137.1,208.4,152.5,223.8,171.5,223.8z M171.5,236.3c-25.9,0-46.9-21-46.9-46.9c0-25.9,21-46.9,46.9-46.9s46.9,21,46.9,46.9
	C218.4,215.3,197.4,236.3,171.5,236.3z"/>
<path class="st2" d="M146.5,248.8c19,0,34.4-15.4,34.4-34.4S165.5,180,146.5,180c-19,0-34.4,15.4-34.4,34.4S127.5,248.8,146.5,248.8
	z M146.5,261.3c-25.9,0-46.9-21-46.9-46.9s21-46.9,46.9-46.9c25.9,0,46.9,21,46.9,46.9S172.4,261.3,146.5,261.3z"/>
<path class="st3" d="M173,236.3c3.3-3.9,5.6-8.6,6.8-13.5c5-1.2,9.6-3.6,13.5-6.8c-0.2,5.7-1.4,11.4-3.6,16.7
	C184.4,234.9,178.8,236.1,173,236.3z M138.1,181c-5,1.2-9.6,3.6-13.5,6.8c0.2-5.7,1.4-11.4,3.6-16.7c5.3-2.2,10.9-3.5,16.7-3.6
	C141.7,171.4,139.4,176.1,138.1,181z"/>
</svg>
