<svg width="65" height="65" viewBox="0 0 65 65" fill="none" xmlns="http://www.w3.org/2000/svg">
<path d="M52.4652 26.6419C51.5675 22.004 49.0846 17.8228 45.442 14.8151C41.7993 11.8073 37.2239 10.1602 32.5 10.1562V14.2188C36.2791 14.2238 39.939 15.5421 42.8532 17.948C45.7675 20.3539 47.7551 23.6979 48.4758 27.4077L49.0019 30.1417L51.742 30.6394C54.4859 31.136 56.9449 32.6405 58.6364 34.8573C60.3278 37.0741 61.1295 39.8432 60.8839 42.6207C60.6384 45.3983 59.3634 47.9838 57.3093 49.8695C55.2551 51.7552 52.5703 52.8049 49.7819 52.8125H32.5V56.875H49.7819C53.5846 56.8667 57.2468 55.4369 60.0492 52.8665C62.8516 50.296 64.5916 46.7706 64.9275 42.9827C65.2635 39.1949 64.171 35.4183 61.8647 32.3948C59.5584 29.3712 56.205 27.3193 52.4631 26.6419H52.4652ZM16.25 48.75H28.4375V52.8125H16.25V48.75ZM8.125 48.75H12.1875V52.8125H8.125V48.75ZM12.1875 40.625H28.4375V44.6875H12.1875V40.625ZM4.0625 40.625H8.125V44.6875H4.0625V40.625ZM16.25 32.5H28.4375V36.5625H16.25V32.5ZM8.125 32.5H12.1875V36.5625H8.125V32.5ZM20.3125 24.375H28.4375V28.4375H20.3125V24.375ZM12.1875 24.375H16.25V28.4375H12.1875V24.375ZM24.375 16.25H28.4375V20.3125H24.375V16.25Z" fill="url(#paint0_linear_76_266)"/>
<defs>
<linearGradient id="paint0_linear_76_266" x1="34.5248" y1="10.1562" x2="34.5248" y2="56.875" gradientUnits="userSpaceOnUse">
<stop stop-color="#FA006C"/>
<stop offset="1" stop-color="#787878"/>
</linearGradient>
</defs>
</svg>
