<svg width="76" height="62" viewBox="0 0 76 62" fill="none" xmlns="http://www.w3.org/2000/svg">
<path d="M47.875 17.5005H50.1535L56.6481 11.0121L56.9665 8.25637C44.8789 -2.40376 26.4313 -1.25216 15.7609 10.8239C12.7962 14.1757 10.6478 18.1682 9.47269 22.4878C10.1948 22.192 10.9977 22.1428 11.7512 22.3534L24.7403 20.2115C24.7403 20.2115 25.3997 19.1181 25.745 19.1853C31.522 12.8448 41.2459 12.1055 47.9199 17.5005H47.875Z" fill="#EA4335"/>
<path d="M65.9011 22.4878C64.4075 16.9942 61.3441 12.0562 57.0832 8.28326L47.9692 17.3885C51.8175 20.5296 54.0108 25.266 53.9166 30.2308V31.8485C58.3973 31.8485 62.0303 35.478 62.0303 39.9545C62.0303 44.4309 58.3973 48.0605 53.9166 48.0605H37.6891L36.07 49.7005V59.4241L37.6891 61.0417H53.9166C65.5692 61.1313 75.0913 51.7662 75.181 40.1247C75.2348 33.0538 71.7498 26.44 65.9011 22.4878Z" fill="#4285F4"/>
<path d="M21.4392 60.9386H37.6667V47.9618H21.4392C20.282 47.9618 19.1428 47.7109 18.0888 47.2314L15.8103 47.9394L9.27085 54.4278L8.70123 56.7041C12.3656 59.4733 16.8419 60.961 21.4392 60.9386Z" fill="#34A853"/>
<path d="M21.4392 18.8448C9.78217 18.912 0.394629 28.4071 0.461907 40.053C0.502274 46.5548 3.53876 52.6758 8.70123 56.6369L18.1112 47.2359C14.0297 45.3943 12.2132 40.5907 14.0566 36.5131C15.9 32.4354 20.7081 30.6207 24.7897 32.4623C26.5882 33.2734 28.028 34.7162 28.8443 36.5131L38.2543 27.1121C34.2535 21.8784 28.028 18.8179 21.4392 18.8448Z" fill="#FBBC05"/>
</svg>
