<svg width="152" height="35" viewBox="0 0 152 35" fill="none" xmlns="http://www.w3.org/2000/svg">
<path d="M62.8334 22.83L61.4338 20.7762H53.2281L51.8285 22.83H49L55.7767 13.17H58.9146L65.6914 22.83H62.8334ZM54.333 19.1756H60.3289L57.3383 14.7847L54.333 19.1756Z" fill="white"/>
<path d="M68.8896 22.83H66.5325V13.17H68.8896V22.83Z" fill="white"/>
<path d="M73.1049 22.83H70.7478V13.17H73.1049V18.3399L75.2852 16.7819L81.178 13.17H84.4633L78.2611 17.2068L84.7137 22.83H81.5905L76.3901 18.3116L73.1049 20.3513V22.83Z" fill="white"/>
<path d="M88.7864 22.83H86.4293V13.17H88.7864V22.83Z" fill="white"/>
<path d="M5.59095 25.8081L22.2615 21.8158C22.6101 21.7323 22.9768 21.8419 23.2225 22.1029L34.5348 34.1206C35.2169 34.8452 36.4236 34.2373 36.2472 33.2579L31.2338 5.42947C31.1007 4.69103 30.232 4.3567 29.6383 4.8154L4.74671 24.0442C3.89393 24.703 4.54298 26.0591 5.59095 25.8081Z" fill="white"/>
<path d="M4.52594 22.6584L21.7751 18.5185C22.1243 18.4347 22.4916 18.5445 22.7374 18.8063L34.418 31.2426C35.0996 31.9682 36.3073 31.3608 36.1312 30.381L30.9618 1.62376C30.8289 0.884642 29.9592 0.550241 29.3654 1.00996L3.68039 20.8953C2.82855 21.5548 3.4784 22.9098 4.52594 22.6584Z" fill="#D23E7E"/>
</svg>
