<svg width="106" height="106" viewBox="0 0 106 106" fill="none" xmlns="http://www.w3.org/2000/svg">
<g clip-path="url(#clip0_97_162)">
<path d="M21.6991 33.2089C38.9903 16.2887 67.0141 16.2887 84.3009 33.2089L86.3812 35.245C86.5866 35.4439 86.7499 35.6821 86.8615 35.9454C86.973 36.2086 87.0305 36.4917 87.0305 36.7776C87.0305 37.0635 86.973 37.3465 86.8615 37.6098C86.7499 37.8731 86.5866 38.1113 86.3812 38.3102L79.2659 45.2753C79.0576 45.4808 78.7768 45.596 78.4842 45.596C78.1915 45.596 77.9107 45.4808 77.7024 45.2753L74.836 42.4751C62.7785 30.6693 43.2259 30.6693 31.1684 42.4751L28.1032 45.4784C27.8931 45.6821 27.6119 45.7961 27.3193 45.7961C27.0266 45.7961 26.7454 45.6821 26.5353 45.4784L19.4201 38.5089C19.2148 38.3104 19.0515 38.0726 18.94 37.8097C18.8285 37.5468 18.7711 37.2641 18.7711 36.9786C18.7711 36.693 18.8285 36.4103 18.94 36.1474C19.0515 35.8845 19.2148 35.6467 19.4201 35.4482L21.6991 33.2089ZM99.0172 47.6205L105.351 53.8215C105.556 54.0204 105.72 54.2586 105.831 54.5219C105.943 54.7851 106 55.0682 106 55.3541C106 55.64 105.943 55.923 105.831 56.1863C105.72 56.4496 105.556 56.6878 105.351 56.8867L76.7926 84.8486C76.3736 85.2568 75.8118 85.4852 75.2269 85.4852C74.6419 85.4852 74.0801 85.2568 73.6611 84.8486L53.3975 65.0045C53.2932 64.9004 53.1518 64.8419 53.0044 64.8419C52.857 64.8419 52.7156 64.9004 52.6113 65.0045L32.3432 84.8486C31.9243 85.2568 31.3625 85.4852 30.7775 85.4852C30.1926 85.4852 29.6308 85.2568 29.2118 84.8486L0.649233 56.8867C0.443808 56.6878 0.280466 56.4496 0.168914 56.1863C0.0573621 55.923 -0.00012207 55.64 -0.00012207 55.3541C-0.00012207 55.0682 0.0573621 54.7851 0.168914 54.5219C0.280466 54.2586 0.443808 54.0204 0.649233 53.8215L6.98273 47.6205C7.4017 47.2123 7.96351 46.9839 8.54844 46.9839C9.13338 46.9839 9.69519 47.2123 10.1142 47.6205L30.3822 67.4646C30.6031 67.6766 30.952 67.6766 31.1684 67.4646L51.4365 47.6205C51.8554 47.2123 52.4173 46.9839 53.0022 46.9839C53.5871 46.9839 54.1489 47.2123 54.5679 47.6205L74.836 67.4646C75.0568 67.6766 75.4013 67.6766 75.6221 67.4646L95.8902 47.6205C96.3085 47.2126 96.8695 46.9843 97.4537 46.9843C98.0379 46.9843 98.599 47.2126 99.0172 47.6205Z" fill="white"/>
</g>
<defs>
<clipPath id="clip0_97_162">
<rect width="106" height="106" fill="white"/>
</clipPath>
</defs>
</svg>
